<mxfile host="Electron" modified="2023-10-22T11:29:06.585Z" agent="Mozilla/5.0 (X11; Linux x86_64) AppleWebKit/537.36 (KHTML, like Gecko) draw.io/22.0.3 Chrome/114.0.5735.289 Electron/25.8.4 Safari/537.36" etag="h5cQLd29_Qt62Qf2IwBd" version="22.0.3" type="device">
  <diagram name="Page-1" id="oKJrCJRrOZvotvVHOjbZ">
    <mxGraphModel dx="463" dy="290" grid="1" gridSize="10" guides="1" tooltips="1" connect="1" arrows="1" fold="1" page="1" pageScale="1" pageWidth="827" pageHeight="1169" background="none" math="0" shadow="0">
      <root>
        <mxCell id="0" />
        <mxCell id="1" parent="0" />
        <mxCell id="_7s9nAR8T9O7d8TYDm4V-10" value="" style="rounded=1;whiteSpace=wrap;html=1;fillColor=#f5f5f5;fontColor=#333333;strokeColor=#666666;" vertex="1" parent="1">
          <mxGeometry x="109" y="430" width="210" height="130" as="geometry" />
        </mxCell>
        <mxCell id="_7s9nAR8T9O7d8TYDm4V-1" value="Master 1" style="rounded=1;whiteSpace=wrap;html=1;fillColor=#dae8fc;strokeColor=#6c8ebf;fontSize=10;" vertex="1" parent="1">
          <mxGeometry x="160" y="440" width="70" height="30" as="geometry" />
        </mxCell>
        <mxCell id="_7s9nAR8T9O7d8TYDm4V-4" value="Master 2" style="rounded=1;whiteSpace=wrap;html=1;fillColor=#dae8fc;strokeColor=#6c8ebf;fontSize=10;" vertex="1" parent="1">
          <mxGeometry x="160" y="480" width="70" height="30" as="geometry" />
        </mxCell>
        <mxCell id="_7s9nAR8T9O7d8TYDm4V-5" value="Master 3" style="rounded=1;whiteSpace=wrap;html=1;fillColor=#dae8fc;strokeColor=#6c8ebf;fontSize=10;" vertex="1" parent="1">
          <mxGeometry x="160" y="520" width="70" height="30" as="geometry" />
        </mxCell>
        <mxCell id="_7s9nAR8T9O7d8TYDm4V-6" value="&lt;font style=&quot;font-size: 10px;&quot;&gt;CDN Load Balancer&lt;/font&gt;" style="rounded=1;whiteSpace=wrap;html=1;arcSize=19;spacing=10;horizontal=0;fillColor=#ffe6cc;strokeColor=#d79b00;fontSize=10;" vertex="1" parent="1">
          <mxGeometry x="120" y="440" width="30" height="110" as="geometry" />
        </mxCell>
        <mxCell id="_7s9nAR8T9O7d8TYDm4V-7" value="Worker 1" style="rounded=1;whiteSpace=wrap;html=1;fillColor=#e1d5e7;strokeColor=#9673a6;fontSize=10;" vertex="1" parent="1">
          <mxGeometry x="236" y="440" width="70" height="30" as="geometry" />
        </mxCell>
        <mxCell id="_7s9nAR8T9O7d8TYDm4V-8" value="Worker 2" style="rounded=1;whiteSpace=wrap;html=1;fillColor=#e1d5e7;strokeColor=#9673a6;fontSize=10;" vertex="1" parent="1">
          <mxGeometry x="236" y="480" width="70" height="30" as="geometry" />
        </mxCell>
        <mxCell id="_7s9nAR8T9O7d8TYDm4V-9" value="Worker 3" style="rounded=1;whiteSpace=wrap;html=1;fillColor=#e1d5e7;strokeColor=#9673a6;fontSize=10;" vertex="1" parent="1">
          <mxGeometry x="236" y="520" width="70" height="30" as="geometry" />
        </mxCell>
        <mxCell id="_7s9nAR8T9O7d8TYDm4V-12" value="&lt;b&gt;Kubernetes Cluster&lt;/b&gt;" style="text;html=1;align=center;verticalAlign=middle;resizable=0;points=[];autosize=1;strokeColor=none;fillColor=none;" vertex="1" parent="1">
          <mxGeometry x="150" y="408" width="130" height="30" as="geometry" />
        </mxCell>
      </root>
    </mxGraphModel>
  </diagram>
</mxfile>
